# xmcd CD database file
#
# Track frame offsets:
#	150
#	13856
#	27589
#	42511
#	55420
#	66122
#	78784
#	91278
#	103686
#	119847
#	129958
#	140678
#	153272
#	166984
#	181605
#	191715
#	204623
#	217098
#
# Disc length: 3039 seconds
#
# Revision: 1
# Processed by: cddbd v1.5.2PL0 Copyright (c) Steve Scherf et al.
# Submitted via: CDex 1.70beta2
#
DISCID=050bdd12
DTITLE=Various Artist - A Gospel Prayer for Peace
DYEAR=2003
DGENRE=Gospel
TTITLE0=Lee Greenwood - Amazing Grace
TTITLE1=Deborah Allen - He's Got the Whole World in His Hands
TTITLE2=The Jordanaires - Swing Low Sweet Chariot
TTITLE3=Patsy Cline - Life's Railway to Heaven
TTITLE4=Jerry Lee Lewis - Will The Circle be Unbroken
TTITLE5=Eddie Bond - Just a Closer Walk With Thee
TTITLE6=Charlie Rich - Big Man
TTITLE7=The Oakridge Boys - The Shelter of His Arms
TTITLE8=Sandy Posey - What a Friend We Have in Jesus
TTITLE9=Johnny Cash - I Was There When it Happened
TTITLE10=Ed Bruce - The Lord's Prayer
TTITLE11=The Oakridge Boys - The Old Country Church
TTITLE12=The Jordanaires - Leaning on the Everlasting Arms
TTITLE13=T. Graham Brown - Rock of Ages
TTITLE14=Sons of The Pioneers - Somebody Bigger Than You and I
TTITLE15=Carl Perkins - Hallelujah Special
TTITLE16=The Oakridge Boys - You'll Never Walk Alone
TTITLE17=The Blackwood Brothers - I'm Winging My Way Back Home
EXTD=YEAR: 2003
EXTT0=
EXTT1=
EXTT2=
EXTT3=
EXTT4=
EXTT5=
EXTT6=
EXTT7=
EXTT8=
EXTT9=
EXTT10=
EXTT11=
EXTT12=
EXTT13=
EXTT14=
EXTT15=
EXTT16=
EXTT17=
PLAYORDER=
